<?xml version="1.0" encoding="UTF-8"?><svg id="Layer_2" xmlns="http://www.w3.org/2000/svg" viewBox="0 0 1200 613.06"><defs><style>.cls-1{fill:aqua;}</style></defs><g id="Layer_1-2"><g><path d="M1070.04,554.86c-30.52-13.36-36.29-58.75-14.86-82.5,30.88-32.85,83.1-8.58,82.08,35.67,.68,36.14-33.64,61.14-67.22,46.83m65.79,49.48c68.57-25.95,85.49-119.22,34.64-169.94-30.56-31.74-86.65-39.29-127.03-22.69-39.71,15.61-64.61,53.98-64.14,96.31-.32,82.87,84.3,124.33,156.53,96.31m-196.53-195.7h-63.1v198.82h63.1v-198.82Zm-116.74,198.8V337.46h-63.1v99.64c-18.99-33.81-67.2-41.09-100.03-25.38-37.79,16.31-58.01,55.57-57.53,96.31-.47,40.73,19.72,80.04,57.53,96.31,32.48,15.42,81.34,8.89,100.03-24.95v28.05h63.1Zm-129.91-52.79c-30.57-13.64-36.92-58.21-14.86-82.08,30.88-33.39,82.32-8.59,81.67,35.46,.82,35.22-33.87,61.62-66.81,46.62m-183.67-46.19c-.29,27.35-9.12,50.31-38.36,50.31-13.19,0-22.34-4.47-27.43-13.41-5.09-8.94-7.62-20.54-7.62-34.86v-101.86h-62.69v117.96c.68,25.14,.41,44.58,15.26,63.1,27.06,34.64,101.15,29.45,120.84-10.72v28.45h63.12v-198.8h-63.12v99.81Zm-178.18,51.76c-27.03,2.07-39.56-3.47-39.19-33.62,0,0,0-70.95,0-70.95h45.38v-47.01h-45.38v-59h-62.69v59h-31.34v47.01h31.34v84.98c0,16.5,2.26,29.48,6.81,38.98,11.43,26.69,38.48,31.47,63.72,31.14,15.23,.07,29.27-1.14,42.07-3.31v-48.26c-3.02,.56-6.6,.91-10.72,1.04m-235.11-76.93c-10.01-3.29-19.11-5.84-25.57-12.17-5.92-6.21-3.55-18.38,3.71-22.26,18.86-10.29,43.57-3.03,42.48,21.65h62.29c.24-46.82-42.29-68.33-85.79-67.24-26.96,0-48.34,4.95-64.14,14.86-22.61,12.36-29.86,46.93-18.76,69.72,10.95,21.02,35.05,27.23,56.5,34.22,18.32,6.96,36.93,8.52,50.12,20.43,5.64,6.42,3.29,19.81-4.12,23.5-4.82,2.88-11.08,4.33-18.78,4.33-18.85-.2-32.11-8.6-31.74-29.29H0c.23,51.59,41.6,71.76,91.57,71.77,22.37-.18,45.24-2.95,63.51-14.22,24.49-13.57,33.32-48.98,21.26-73.62-11.68-21.52-36.27-27.89-58.79-34.64-8.24-2.75-15.53-5.09-21.86-7.02"/><path d="M556.11,288.73l89.93-198.82h-66l-48.67,124.98-48.26-124.98h-65.98l88.67,198.82h50.31Zm-215.08-150.96c7.54,7.41,11.34,17.58,11.34,30.51h-83.31c0-13.46,3.98-23.77,11.95-30.93,14.67-14.03,45.71-14.7,60.02,.43m73,50.72c7.99-82.66-77.86-122.99-147.67-95.69-39.41,15.74-60.6,54.94-60,96.53-.65,42.52,20.39,82.37,61.24,97.12,51.64,19.79,134.61,2.81,144.15-60.41h-61.86c-2.21,6.33-6.13,11.68-11.76,16.07-9.04,8.01-34.08,8.33-45.57,3.09-16.94-6.56-23.01-23.59-23.5-40.62h143.13c1.08-6.05,1.7-11.41,1.86-16.09m-349.16-14.43V0H1.77V288.73h63.1v-83.31l61.05,83.31h75.07l-77.14-99.41,77.55-99.41H126.33l-61.46,84.15Z"/><path class="cls-1" d="M644.14,267.37c11.39,27.99,50.61,35.51,71.46,13.68,27.64-26.88,7.28-74.43-31.07-74.05-30.33-.77-53.14,32.68-40.39,60.37"/></g></g></svg>