<svg width="800" height="800" viewBox="0 0 800 800" fill="none" xmlns="http://www.w3.org/2000/svg">
<g clip-path="url(#clip0_1121_25)">
<path d="M424.717 200H375.26V327.987H424.717V200Z" fill="#D3D3D3"/>
<path d="M424.717 472.014H375.26V600H424.717V472.014Z" fill="#D3D3D3"/>
<path d="M327.967 375.275H199.98V424.732H327.967V375.275Z" fill="#D3D3D3"/>
<path d="M599.971 375.275H471.984V424.732H599.971V375.275Z" fill="#D3D3D3"/>
<path d="M276.064 241.107L241.068 276.054L331.505 366.617L366.501 331.67L276.064 241.107Z" fill="#D3D3D3"/>
<path d="M468.369 433.253L433.41 468.236L523.942 558.705L558.901 523.721L468.369 433.253Z" fill="#D3D3D3"/>
<path d="M331.486 433.552L241.002 524.068L275.979 559.034L366.464 468.518L331.486 433.552Z" fill="#D3D3D3"/>
<path d="M523.956 241.035L433.377 331.457L468.318 366.458L558.897 276.037L523.956 241.035Z" fill="#D3D3D3"/>
<path d="M344.878 211.184L305.486 227.42L331.273 289.984L370.665 273.748L344.878 211.184Z" fill="#D3D3D3"/>
<path d="M455.293 588.977L494.557 572.603L468.659 510.113L429.395 526.488L455.293 588.977Z" fill="#D3D3D3"/>
<path d="M273.55 429.177L211.045 455.105L227.37 494.46L289.875 468.531L273.55 429.177Z" fill="#D3D3D3"/>
<path d="M572.547 305.517L510.033 331.424L526.345 370.784L588.859 344.877L572.547 305.517Z" fill="#D3D3D3"/>
<path d="M227.39 305.378L211.078 344.738L273.592 370.645L289.903 331.285L227.39 305.378Z" fill="#D3D3D3"/>
<path d="M526.446 429.281L510.162 468.653L572.694 494.516L588.978 455.144L526.446 429.281Z" fill="#D3D3D3"/>
<path d="M331.405 510.178L305.422 572.66L344.762 589.019L370.746 526.537L331.405 510.178Z" fill="#D3D3D3"/>
<path d="M455.139 211.015L429.199 273.515L468.551 289.848L494.491 227.348L455.139 211.015Z" fill="#D3D3D3"/>
</g>
<defs>
<clipPath id="clip0_1121_25">
<rect width="400.167" height="400" fill="white" transform="translate(199.992 200)"/>
</clipPath>
</defs>
</svg>
