<?xml version="1.0" encoding="UTF-8"?><svg id="Layer_2" xmlns="http://www.w3.org/2000/svg" viewBox="0 0 73.87 66.28"><g id="Layer_1-2"><path d="M.89,20.3c1.42-1.61,2.86-3.21,4.32-4.8-1.69,3.78-1.96,8.2-.41,12.38,2.45,6.61,8.74,10.71,15.41,10.71,1.89,0,3.82-.33,5.69-1.03,8.49-3.15,12.83-12.61,9.68-21.1-3.15-8.49-12.61-12.83-21.1-9.68-2.12.79-3.98,1.96-5.52,3.42-.1,0-.21.05-.29.15-2.6,2.72-5.15,5.5-7.65,8.31.12-6.54,4-12.79,9.87-15.72.58-.29.07-1.16-.51-.87C3.82,5.35-.39,12.64.03,19.95c.02.4.55.7.86.35ZM8.26,18.24c1.35-1.23,2.7-2.45,4.06-3.68-.1.49-.19.97-.29,1.46-.12.63.84.9.97.27.2-.99.39-1.99.59-2.98.1-.49-.46-.84-.84-.49-1.41,1.28-2.82,2.56-4.23,3.84.18-1.85.48-3.68.91-5.49,1.5-1.47,3.31-2.66,5.4-3.43,1.76-.65,3.57-.96,5.34-.96,6.26,0,12.17,3.85,14.47,10.05,2.96,7.97-1.12,16.85-9.09,19.81-7.97,2.95-16.85-1.12-19.81-9.09-1.93-5.2-.85-10.78,2.34-14.86-.33,1.72-.56,3.45-.67,5.2-.03.46.56.63.86.36Z"/><path d="M17.66,23.95c.24,1.36,1.42,2.31,2.76,2.31.16,0,.33-.01.49-.04,1.52-.27,2.54-1.73,2.27-3.25-.05-.27-.31-.46-.58-.41-.27.05-.45.31-.41.58.17.98-.48,1.91-1.46,2.08-.98.17-1.91-.48-2.08-1.46-.05-.27-.32-.45-.58-.41-.27.05-.45.31-.41.58Z"/><path d="M17.11,21.47c.43-.08.71-.48.64-.91-.08-.43-.48-.71-.91-.64-.43.08-.71.48-.64.91.08.43.48.71.91.64Z"/><path d="M22.56,18.92c-.43.08-.71.48-.64.91.08.43.48.71.91.64.43-.08.71-.48.64-.91-.08-.43-.48-.71-.91-.64Z"/><path d="M56.22,41.92c-.27-.07-.54.1-.61.37-.12.47-.41.86-.82,1.1-.41.25-.89.32-1.36.2-.47-.12-.86-.41-1.11-.82-.25-.41-.32-.9-.2-1.36.07-.27-.1-.54-.36-.61-.27-.07-.54.1-.61.36-.18.73-.07,1.48.31,2.12.39.64,1,1.1,1.72,1.28.23.06.46.09.68.09.5,0,1-.14,1.44-.4.64-.38,1.1-1,1.28-1.72.07-.27-.1-.54-.37-.61Z"/><path d="M51.67,38.69c.42.11.85-.15.95-.57.11-.42-.15-.85-.57-.95s-.85.15-.95.57c-.11.42.15.85.57.95Z"/><path d="M57.69,38.58c-.42-.11-.85.15-.95.57-.11.42.15.85.57.95.42.11.85-.15.95-.57.11-.42-.15-.85-.57-.95Z"/><path d="M18.11,55.13c-.31.08-.49.39-.41.7.08.31.39.49.7.41.31-.08.49-.39.41-.7-.08-.31-.39-.49-.7-.41Z"/><path d="M22.5,55.16c.31-.08.49-.39.41-.7-.08-.31-.39-.49-.7-.41-.31.08-.49.39-.41.7.08.31.39.49.7.41Z"/><path d="M20.43,57.14c.16.16.44.09.5-.13l.28-1c.06-.22-.14-.42-.36-.37l-1,.26c-.22.06-.3.33-.14.5l.73.74Z"/><path d="M35.64,60.67c.66,0,.8-.94.12-1.04-.28-.04-.57-.08-.85-.12.35-.15.41-.63.11-.88-.56-.48-.98-1.08-1.48-1.61-.3-.32-.64-.57-1-.77,1.27-.86,2.79-1.27,4.17-1.93.36-.17.42-.66.1-.9-.44-.34-.99-.55-1.51-.74-.77-.29-1.57-.52-2.37-.71-1.07-.26-2.43-.56-3.61-.35.02-.04.04-.07.04-.11.13-.76-.17-1.49-.47-2.17-.36-.81-.61-1.64-.91-2.47-.67-1.85-1.44-3.66-2.21-5.46-.19-.44-.78-.37-.97.02-.78,1.66-1.57,3.31-2.35,4.97-.22-.13-.43-.25-.65-.38-.2-.11-.39-.23-.59-.34-.2-.12-.41-.27-.63-.34-.48-.14-.73.3-1.03.59-.15.14-.3.28-.46.41-.08.06-.21.18-.33.25-.15-.11-.3-.3-.41-.41-.22-.23-.4-.53-.75-.57-.35-.04-.55.21-.74.46-.12.17-.23.34-.35.51-1.46-1.49-3-2.89-4.64-4.19-.24-.19-.71-.1-.8.23-.11.38-.21.76-.32,1.14-.28-.06-.6.16-.66.46-.52,2.74-.37,5.54.38,8.21-.2-.06-.43,0-.56.18-.73,1.02-1.42,2.11-1.31,3.42.02.24.26.42.49.43-1.58,1.01-2.59,2.65-3.55,4.25-.17.29-.08.84.36.83,1.09-.02,2.17-.14,3.25-.3-.9.7-1.81,1.4-2.71,2.1-.41.32-.1,1.02.41.93.67-.12,1.34-.24,2.01-.36-.73.45-1.47.89-2.2,1.34-.39.23-.43.99.16,1,2.7.05,5.39-.27,8.01-.96,1.36.4,2.75.71,4.17.87,1.41.16,2.87.26,4.24-.2,1.23-.42,2.42-1.17,3.48-1.91.94-.66,1.76-1.49,2.2-2.56,2.2-.53,4.46-.81,6.73-.81ZM28.57,60.52c-.21-.03-.42.06-.51.32-.36,1.08-1.17,1.82-2.08,2.45-.97.66-2.05,1.34-3.17,1.71-1.26.41-2.66.25-3.95.09-1.38-.18-2.73-.48-4.05-.89-.23-.07-.43.01-.55.15-1.79.45-3.62.73-5.46.82.98-.6,1.97-1.19,2.95-1.79.47-.28.34-1.11-.3-1-.89.16-1.78.32-2.67.48.89-.69,1.77-1.37,2.66-2.06.41-.32.1-1.02-.41-.93-1.36.24-2.72.48-4.1.57.82-1.35,1.76-2.68,3.21-3.38.6-.3.18-1.26-.43-.96-.05.02-.09.05-.14.08.05-.1.08-.2.07-.33,0-.11-.01-.17,0-.32.01-.13.03-.26.06-.38,0-.02.02-.09.03-.1.02-.07.05-.15.07-.22.04-.12.09-.23.15-.34.11-.22.2-.38.35-.6.14-.22.29-.42.44-.63.25.56,1.13.15.93-.47-.79-2.41-1.01-4.95-.69-7.45.22,0,.44-.1.5-.31.12-.43.24-.86.36-1.29,1.52,1.24,2.97,2.55,4.33,3.96.25.26.61.18.81-.02.06-.04.12-.09.16-.16.14-.21.28-.43.43-.64.14.15.29.29.44.42.28.25.6.48,1,.33.31-.11.6-.36.85-.57.15-.12.28-.25.42-.38.05-.05.12-.14.18-.23,0,0,.02,0,.02,0,.08.05.16.1.25.14.18.1.36.21.54.31.36.21.72.42,1.08.63.24.14.55.14.73-.11.05-.07.08-.16.09-.25.05-.05.1-.11.14-.18.65-1.37,1.3-2.74,1.95-4.11.57,1.34,1.13,2.69,1.64,4.06.29.78.51,1.59.83,2.35.28.65.72,1.36.59,2.09-.04.22.06.38.2.47-.01,0-.03,0-.04.01-.61.29-.19,1.25.43.96.49-.24,1.09-.22,1.62-.19.77.05,1.53.19,2.28.37.7.17,1.39.38,2.06.63.14.05.27.11.41.16-1.45.6-2.93,1.11-4.11,2.18-.26.24-.28.78.13.9.67.19,1.17.51,1.63,1.04.22.26.44.51.66.76-.81.11-.42.05-1.22.16-.57.07-.55.86-.05,1.01-.81.13-2.82.44-3.63.63-.05.01-.08.04-.12.06Z"/><path d="M22.97,58.65c-.31-.06-.63-.14-.93-.25-.06-.02-.12-.04-.17-.07,0,0,0,0,0,0,.03-.1.05-.2.04-.3-.01-.14-.02-.21-.11-.3-.09-.09-.11-.2-.41-.22s-1.39,1.61-1.62,1.96c-.15.23-.05.59.19.72.26.14.56.06.72-.19,0-.01.02-.03.03-.04.2-.25.42-.48.62-.73.14.06.27.12.41.17.32.11.64.2.97.26.14.03.28.02.4-.05.11-.06.21-.19.24-.31.06-.26-.08-.59-.37-.64Z"/><path d="M23.13,15.02c.86.45,1.67.21,2.1-.67.37-.75.65-1.55.93-2.34.6.81,1.35,1.51,2.33,1.8,1.18.35,2.45.01,3.2-.98.39-.52-.48-1.02-.87-.51-.53.7-1.6.75-2.35.41-.91-.41-1.52-1.27-2.01-2.1-.23-.4-.77-.27-.92.12-.31.86-.63,1.71-.96,2.56-.1.26-.2.72-.45.9-.29.2-.82-.25-1.05-.41-1.17-.84-1.95-2.12-2.26-3.52-.14-.63-1.1-.36-.97.27.4,1.83,1.59,3.59,3.28,4.47Z"/><path d="M29.12,1.69C26.46-.05,22.91-.68,20.05.93c-.56.32-.06,1.19.51.87,2.67-1.51,5.99-.72,8.38.97,2.62,1.86,4.33,4.72,5.97,7.41.34.55,1.2.05.87-.51-1.79-2.95-3.7-6.06-6.65-7.99Z"/><path d="M72.59,38.65c1.63-1.63,1.3-4.44,1.12-6.52-.24-2.66-.74-5.4-1.74-7.89-.87-2.18-2.35-3.96-4.58-4.82-2.5-.96-5.3-.4-7.36,1.28-.5.41.21,1.11.71.71,1.56-1.27,3.68-1.77,5.63-1.26,2.01.52,3.5,1.95,4.38,3.79.92,1.92,1.38,4.12,1.71,6.21.18,1.16.29,2.34.34,3.51.04.93.08,1.91-.15,2.82-.28,1.11-.98,1.75-1.98,2.25-.06.03-.12.06-.19.1-.73-6.64-5.47-12.45-12.32-14.16-5.88-1.47-11.81.45-15.76,4.52,0-.23.06-.47.14-.71.17-.55.36-1.08.34-1.66-.01-.35-.43-.67-.76-.43-.66.48-1.36.86-2.1,1.16.53-2.59,2.62-4.63,4.6-6.24,1.19-.97,2.52-1.86,4.03-2.25,1.61-.42,3.35-.26,4.87.42.58.26,1.1-.6.51-.87-1.61-.73-3.37-.97-5.12-.64-1.75.33-3.29,1.27-4.67,2.36-2.54,2-5.09,4.58-5.36,7.97-.03.32.34.57.64.48.77-.23,1.5-.55,2.19-.95-.21.78-.52,1.55-.13,2.27-1.54,1.84-2.71,4.03-3.33,6.51-2.2,8.78,3.16,17.71,11.94,19.91,1.33.33,2.67.49,3.99.49,7.35,0,14.06-4.98,15.93-12.43.39-1.57.54-3.15.47-4.69.18-.08.35-.16.51-.24.54-.26,1.07-.57,1.5-1ZM69.14,44.33c-2.06,8.24-10.44,13.27-18.69,11.21-8.24-2.06-13.27-10.45-11.21-18.69.57-2.29,1.64-4.33,3.05-6.04.37.22.81.35,1.23.43.23.04.72.03.9.18.27.22.14.77.17,1.08.12,1.39,1.53,1.8,2.71,1.48,1.59-.44,3.15-1.33,4.52-2.22.54-.35.04-1.22-.51-.87-1.19.77-2.45,1.45-3.77,1.95-.52.2-1.4.51-1.82-.04-.31-.41-.07-1.1-.24-1.59-.38-1.06-1.69-.78-2.52-1.17,2.88-3.05,6.93-4.86,11.22-4.86,1.24,0,2.49.15,3.74.46,6.4,1.6,10.85,7.03,11.55,13.23-.15-.12-.27-.29-.4-.44-.41-.49-.82-.98-1.23-1.47-.25-.3-.73-.11-.84.22-.14.46-.1,2.01-.76,1.96-.34-.02-.67-.46-.9-.68-.31-.31-.6-.65-.86-1-.38-.51-1.25-.01-.87.51.43.57.89,1.12,1.43,1.59.39.34.81.69,1.36.63.97-.11,1.2-.94,1.36-1.76.23.27.45.54.68.81.31.37.63.74,1.13.83.05,1.41-.08,2.85-.44,4.28Z"/></g></svg>