<?xml version="1.0" encoding="UTF-8"?><svg id="Layer_2" xmlns="http://www.w3.org/2000/svg" viewBox="0 0 140.42 140.54"><g id="Layer_1-2"><path d="M6.8,61.95l-2.53-1.07c-.7-.3-1.44-.59-2.17-.85.77-.04,1.56-.11,2.32-.18l2.73-.28.2-1.35-6.07-2.7-.19,1.25,2.45,1.05c.75.31,1.56.64,2.33.94-.82.04-1.69.09-2.51.17l-2.64.27-.18,1.24,2.45,1.03c.76.3,1.56.62,2.34.9-.83.05-1.69.14-2.5.22l-2.65.28-.19,1.25,6.6-.82.2-1.34Z"/><polygon points="9.07 51.31 8.02 51.03 7.12 54.41 5.5 53.98 6.32 50.91 5.31 50.64 4.5 53.71 3.03 53.32 3.94 49.93 2.89 49.64 1.67 54.21 7.86 55.86 9.07 51.31"/><path d="M10.18,48.21c.73-1.96-.05-3.45-1.88-4.13s-3.4-.06-4.13,1.89l-.85,2.29,6.01,2.24.85-2.3ZM8.77,49l-4.05-1.51.42-1.14c.43-1.16,1.38-1.59,2.71-1.09,1.33.5,1.77,1.44,1.34,2.6l-.42,1.14Z"/><path d="M12.73,42.23c.92-1.87.3-3.44-1.45-4.3-1.75-.86-3.37-.41-4.29,1.46l-1.08,2.2,5.75,2.84,1.08-2.2ZM7.38,40.96l.54-1.09c.55-1.11,1.53-1.44,2.81-.81,1.28.63,1.62,1.61,1.07,2.72l-.54,1.09-3.87-1.91Z"/><rect x="11.59" y="33.26" width="1.22" height="6.41" transform="translate(-25.43 28.57) rotate(-59.66)"/><path d="M16.5,35.55l-1.38-.95c-.78-.53-1.63-1.11-2.58-1.72.7.08,1.48.12,2.24.14l3.36.14.76-1.11-5.29-3.62-.66.97,1.38.95c.78.53,1.63,1.1,2.58,1.72-.68-.07-1.54-.12-2.23-.15l-3.37-.13-.76,1.11,5.29,3.62.66-.97Z"/><path d="M18.9,26.59l.75.64,1.08-1.28c.67.65.64,1.65.03,2.37-.78.92-1.93.92-3.01,0s-1.27-2.04-.51-2.94c.57-.67,1.34-.86,2.03-.51l.81-.95c-1.2-.73-2.61-.45-3.66.78-1.26,1.49-1.04,3.28.5,4.58s3.34,1.24,4.54-.17c.58-.69.79-1.48.6-2.23l.76.42.57-.67-2.64-2.24-1.85,2.18Z"/><path d="M27.87,22.57c1.43-1.27,1.51-3.11.17-4.62-1.34-1.51-3.17-1.66-4.61-.39-1.44,1.28-1.51,3.12-.18,4.63s3.17,1.66,4.62.38ZM24.14,18.37c.88-.78,2.02-.64,2.96.42.94,1.06.94,2.21.06,2.99-.88.78-2.02.64-2.96-.42-.94-1.06-.94-2.21-.06-2.99Z"/><polygon points="31.85 19.14 30.22 16.9 32.66 15.12 32.04 14.28 29.6 16.06 28.71 14.83 31.39 12.88 30.75 12 27.08 14.67 30.87 19.85 31.85 19.14"/><polygon points="34.38 10.3 35.28 11.88 35.74 11.62 34.84 10.03 35.45 9.69 35.21 9.27 33.53 10.22 33.77 10.64 34.38 10.3"/><path d="M37.04,10.88l-.36-.63c-.11-.2-.23-.41-.37-.63.04.03.08.07.13.11l1.03.9.37-.21-.24-1.34c-.02-.06-.03-.12-.03-.17.12.23.24.44.35.64l.36.63.45-.25-1.14-2-.61.35.2,1.13c.03.16.07.32.1.46l-.33-.31-.88-.76-.61.35,1.14,2,.45-.25Z"/><polygon points="49.28 9.83 48.89 8.82 46.04 9.92 44.12 4.96 42.99 5.4 45.3 11.37 49.28 9.83"/><polygon points="54.54 8.27 54.23 7.22 50.88 8.21 50.41 6.6 53.46 5.7 53.16 4.7 50.12 5.6 49.69 4.15 53.06 3.16 52.75 2.11 48.22 3.44 50.02 9.59 54.54 8.27"/><polygon points="59.99 7.15 59.77 6.08 56.35 6.77 56.02 5.13 59.13 4.5 58.93 3.48 55.82 4.11 55.52 2.62 58.96 1.93 58.74 .87 54.11 1.8 55.37 8.08 59.99 7.15"/><polygon points="61.92 5.83 61.31 .54 60.1 .68 60.83 7.05 65.07 6.56 64.95 5.48 61.92 5.83"/><path d="M69.06,0l-1.42.03-2.29,6.47,1.25-.03.46-1.43,2.81-.07.54,1.4,1.29-.03-2.64-6.35ZM67.41,4l.23-.7c.2-.59.49-1.45.73-2.22.28.75.61,1.6.84,2.18l.27.69-2.07.05Z"/><polygon points="78.69 6.95 80.12 7.1 77.91 3.05 80.81 .74 79.31 .58 76.01 3.26 76.33 .26 75.12 .13 74.44 6.49 75.65 6.62 75.86 4.63 76.97 3.76 78.69 6.95"/><path d="M83.06,7.86c1.88.39,3.4-.66,3.81-2.64.41-1.98-.58-3.54-2.46-3.93-1.89-.39-3.41.66-3.82,2.63-.41,1.98.58,3.54,2.46,3.93ZM81.84,4.19c.29-1.38,1.21-2.08,2.36-1.84,1.15.24,1.72,1.24,1.44,2.62s-1.21,2.08-2.36,1.84c-1.15-.24-1.72-1.24-1.44-2.62Z"/><path d="M89.25,9.47c1.53.48,2.68.1,3.06-1.11.3-.97-.11-1.71-1.46-2.45l-.5-.27c-.85-.47-1.07-.79-.91-1.28.14-.46.6-.64,1.34-.41.97.3,1.19.78,1.03,1.44l1.12.35c.32-1.16-.16-2.2-1.88-2.74-1.47-.46-2.49,0-2.81,1.02-.35,1.11.27,1.88,1.39,2.47l.48.26c.88.48,1.13.8.98,1.28-.18.58-.71.75-1.51.5-.85-.27-1.41-.73-1.13-1.69l-1.14-.36c-.43,1.41.31,2.47,1.95,2.98Z"/><polygon points="94.89 11.38 96.91 6.46 98.81 7.24 99.22 6.23 94.29 4.21 93.88 5.22 95.78 6 93.76 10.92 94.89 11.38"/><path d="M99.6,13.75c1.46.76,2.79.46,3.56-1.02l1.85-3.54-1.08-.56-1.85,3.55c-.47.89-1.17,1.06-1.99.64-.81-.42-1.08-1.1-.61-2l1.85-3.55-1.08-.56-1.85,3.54c-.77,1.48-.23,2.75,1.2,3.5Z"/><path d="M105.71,17.22l1.28-1.84,1.31.92c1.21.85,2.34.61,3.05-.4.71-1.02.55-2.16-.66-3.01l-2.31-1.61-3.67,5.25,1,.7ZM108.78,12.83l1.27.89c.58.41.68.94.3,1.48-.38.55-.91.63-1.49.22l-1.27-.89,1.19-1.7Z"/><path d="M110.44,20.73l1.63-1.92,1.21,1.03c.49.42.61.81.11,1.46l-.43.55c-.2.25-.33.47-.37.69l.95.81c.03-.23.16-.48.33-.7l.58-.76c.41-.53.58-1.01.18-1.64.69.26,1.33.09,1.81-.47.7-.82.57-1.89-.55-2.84l-2.22-1.88-4.15,4.89.93.79ZM113.94,16.6l1.2,1.02c.54.46.65.97.25,1.45-.43.5-.97.49-1.47.06l-1.24-1.05,1.26-1.48Z"/><polygon points="117.4 27.28 118.18 26.51 115.73 24.02 116.93 22.85 119.15 25.12 119.9 24.39 117.67 22.12 118.75 21.06 121.21 23.57 121.99 22.8 118.68 19.43 114.1 23.92 117.4 27.28"/><path d="M118.72,28.82l1.3-1.06c.73-.6,1.53-1.24,2.39-1.99-.28.64-.53,1.38-.77,2.1l-1.09,3.18.85,1.05,4.98-4.04-.74-.91-1.3,1.06c-.73.6-1.52,1.25-2.39,1.99.26-.63.55-1.45.78-2.1l1.09-3.19-.85-1.05-4.98,4.04.74.91Z"/><path d="M123.39,35.04c1.15,1.75,2.81,2,4.44.93,1.63-1.07,2.06-2.7.91-4.45l-1.34-2.05-5.36,3.52,1.34,2.05ZM127.2,31.07l.67,1.02c.68,1.04.47,2.05-.72,2.83-1.19.78-2.21.58-2.89-.46l-.67-1.02,3.61-2.37Z"/><polygon points="127.77 42.66 128.74 42.15 127.1 39.06 128.58 38.28 130.07 41.09 130.99 40.6 129.5 37.79 130.84 37.08 132.48 40.18 133.44 39.67 131.23 35.5 125.57 38.5 127.77 42.66"/><path d="M130.77,47.81l.86-.42c.6-.28.97-.64.91-1.38.49.55,1.14.68,1.82.4,1-.42,1.37-1.42.8-2.78l-1.12-2.68-5.91,2.47.47,1.12,2.32-.97.61,1.46c.25.6.17,1-.57,1.35l-.64.29c-.29.13-.51.27-.64.45l.48,1.15c.13-.19.36-.35.61-.47ZM133.58,42.45l.61,1.45c.27.65.14,1.16-.44,1.4-.61.25-1.08,0-1.34-.61l-.62-1.49,1.79-.75Z"/><path d="M133.41,47.83c-1.93.58-2.86,2.13-2.33,3.9.26.86.81,1.47,1.55,1.71l-.76.41.25.85,3.31-1-.83-2.74-.94.28.48,1.6c-.92.21-1.74-.36-2.01-1.27-.35-1.15.27-2.12,1.63-2.53s2.4.04,2.74,1.17c.25.85,0,1.59-.67,1.98l.36,1.2c1.26-.61,1.79-1.94,1.33-3.49-.56-1.87-2.19-2.65-4.12-2.07Z"/><path d="M132.47,56.32l1.48.22.53,2.76-1.29.76.24,1.26,5.82-3.64-.27-1.4-6.75-1.19.24,1.23ZM135.77,56.82c.62.1,1.51.24,2.3.35-.69.4-1.47.86-2.01,1.19l-.63.38-.39-2.03.73.11Z"/><path d="M136.42,63.38l-.06.55c-.1.99-.3,1.35-.8,1.4-.6.06-.97-.37-1.05-1.2-.08-.89.12-1.58,1.12-1.7l-.11-1.19c-1.47.15-2.15,1.24-1.99,2.95.15,1.59.95,2.51,2.21,2.39,1.01-.1,1.54-.76,1.69-2.29l.05-.57c.11-.97.31-1.29.82-1.33.48-.05.82.3.9,1.07.1,1.01-.26,1.4-.93,1.51l.11,1.17c1.2-.16,1.97-1,1.79-2.79-.15-1.53-.97-2.29-2.03-2.19-1.16.11-1.62.98-1.74,2.24Z"/><polygon points="139.28 68.83 133.96 68.92 133.98 70.14 139.3 70.05 139.33 72.11 140.42 72.09 140.33 66.76 139.24 66.78 139.28 68.83"/><path d="M137.36,80.12l.71.1c.22.03.46.06.72.09-.05.01-.1.02-.17.03l-1.34.27-.06.42,1.21.62c.06.03.11.05.15.08-.26-.05-.5-.08-.72-.11l-.71-.1-.07.51,2.28.32.1-.69-1.02-.52c-.14-.07-.3-.14-.43-.2l.45-.07,1.14-.23.1-.69-2.28-.32-.07.51Z"/><polygon points="139.44 78.37 137.64 78.12 137.57 78.64 139.37 78.9 139.27 79.58 139.75 79.65 140.02 77.74 139.54 77.68 139.44 78.37"/><path d="M136.64,88.24c-.47-.14-.91-.05-1.57.25-.17-.98-.53-1.62-1.37-1.87-1.02-.31-2.02.22-2.43,1.55-.22.72-.17,1.42.09,2.03l-.64.29-.41,1.36,1.62-.76c.41.46.96.83,1.58,1.05l.3-1c-.33-.11-.65-.28-.92-.51l1.51-.7c.17.95.6,1.56,1.24,1.76.88.27,1.64-.3,1.94-1.28.33-1.09-.14-1.92-.95-2.17ZM132.24,89.79c-.16-.38-.2-.79-.06-1.25.21-.68.78-.92,1.27-.77.5.15.71.53.83,1.07l-2.04.95ZM136.71,90.18c-.12.39-.46.59-.81.49-.38-.12-.6-.47-.73-1.09h.02c.51-.25.86-.32,1.12-.25.36.11.52.47.4.85Z"/><path d="M131.09,100.28l.65.31c.2.1.42.2.66.31-.05,0-.1-.01-.17-.02l-1.35-.16-.18.38.96.97s.09.08.12.12c-.23-.12-.45-.23-.65-.33l-.65-.31-.22.46,2.07,1.01.31-.63-.81-.81c-.11-.12-.24-.23-.34-.32l.45.07,1.16.13.31-.63-2.07-1.01-.22.46Z"/><polygon points="133.61 99.26 131.98 98.46 131.74 98.94 133.38 99.74 133.07 100.36 133.51 100.57 134.35 98.84 133.92 98.63 133.61 99.26"/><polygon points="123.33 105.58 124.98 106.73 125.21 108.12 121.58 108.1 120.75 109.28 125.38 109.29 126.01 112.95 126.88 111.71 126.11 107.52 128.59 109.25 129.28 108.25 124.03 104.59 123.33 105.58"/><polygon points="117.34 113.31 118.17 114.01 120.42 111.34 121.7 112.42 119.66 114.85 120.45 115.52 122.5 113.09 123.66 114.06 121.39 116.75 122.23 117.45 125.27 113.83 120.37 109.71 117.34 113.31"/><path d="M114.47,116.19l2.87,6.18.9-.89-1.52-3.16c-.3-.59-.62-1.23-.98-1.85.62.35,1.25.69,1.84.99l3.16,1.54.92-.91-6.18-2.91-1.01,1Z"/><rect x="113.32" y="117.81" width="1.22" height="6.41" transform="translate(-51.41 104.06) rotate(-40.87)"/><path d="M109.59,120.47l1,1.34c.57.76,1.18,1.58,1.89,2.46-.63-.3-1.36-.59-2.07-.86l-3.14-1.21-1.08.81,3.85,5.13.94-.7-1-1.34c-.57-.76-1.19-1.57-1.89-2.46.62.29,1.42.61,2.06.86l3.15,1.21,1.08-.81-3.85-5.13-.94.7Z"/><path d="M102.48,125.35l.93,1.72c.46.85.96,1.76,1.54,2.76-.35-.35-.69-.66-1.11-1.06l-2.89-2.59-.88.48.6,3.83c.09.59.17,1.03.28,1.53-.53-1.03-1.02-1.96-1.48-2.81l-.93-1.72-1.02.55,3.05,5.64,1.55-.84-.51-3.19c-.1-.6-.24-1.29-.36-1.85.4.39.87.85,1.31,1.27l2.46,2.21,1.55-.84-3.05-5.64-1.03.56Z"/><rect x="96.55" y="128.42" width="1.22" height="6.41" transform="translate(-44.83 50.35) rotate(-23.78)"/><path d="M91.55,130.26c-1.38.5-2.3,1.74-1.9,3.4l1.14-.41c-.2-1,.34-1.71,1.11-1.99,1.08-.39,2.01.18,2.5,1.53.48,1.35.12,2.39-.96,2.77-.74.26-1.49.12-2.01-.65l-1.16.42c.8,1.4,2.19,1.71,3.53,1.23,1.74-.63,2.49-2.25,1.79-4.2-.7-1.95-2.33-2.72-4.05-2.1Z"/><polygon points="86.85 131.9 87.51 134.56 84.61 135.27 83.96 132.62 82.78 132.91 84.31 139.13 85.49 138.84 84.88 136.34 87.77 135.63 88.38 138.13 89.56 137.84 88.03 131.61 86.85 131.9"/><path d="M80.74,134.67l-2.78.39-.7-1.33-1.27.18,3.35,6,1.41-.2,1.52-6.68-1.24.17-.29,1.47ZM80.37,136.46c-.13.61-.32,1.5-.47,2.28-.36-.71-.79-1.52-1.09-2.06l-.35-.65,2.05-.29-.14.72Z"/><polygon points="70.74 134.14 70.79 135.23 74.28 135.06 74.36 136.74 71.18 136.89 71.23 137.93 74.41 137.78 74.48 139.29 70.97 139.46 71.03 140.54 75.74 140.32 75.44 133.92 70.74 134.14"/><polygon points="65.58 135.07 68.63 135.18 68.45 140.49 69.66 140.53 69.88 134.13 65.62 133.98 65.58 135.07"/><path d="M60.03,133.16c-.89-.14-1.67.09-2.22.64l-.03-.86-.87-.14-.55,3.41,2.82.46.16-.97-1.65-.27c.21-.91,1.08-1.4,2.02-1.25,1.19.19,1.79,1.17,1.56,2.57-.22,1.39-1.08,2.14-2.25,1.95-.87-.14-1.43-.7-1.48-1.47l-1.23-.2c0,1.4.96,2.46,2.56,2.72,1.93.31,3.34-.81,3.66-2.8.32-1.99-.67-3.5-2.49-3.79Z"/><path d="M54.1,134.68l-1.53-.41c-.63-.17-.9-.47-.72-1.27l.16-.69c.07-.31.1-.57.03-.78l-1.21-.32c.07.22.06.5,0,.77l-.2.94c-.15.65-.09,1.16.54,1.56-.73.06-1.24.49-1.43,1.2-.28,1.04.29,1.95,1.71,2.33l2.81.75,1.66-6.19-1.17-.32-.65,2.43ZM53.35,137.48l-1.52-.41c-.68-.18-1.01-.6-.84-1.21.17-.63.67-.86,1.3-.69l1.57.42-.5,1.88Z"/><path d="M45.14,134.79c.53-.29,1.05-.59,1.58-.89l3.29-1.94.34-.93-4.87-1.81-.38,1.02,1.69.63c.57.21,1.16.42,1.74.63-.53.29-1.05.59-1.58.89l-3.31,1.94-.34.92,4.7,1.74.38-1.02-1.5-.56c-.57-.21-1.16-.42-1.74-.63Z"/><polygon points="40.47 126.87 40 127.86 43.16 129.35 42.44 130.87 39.57 129.5 39.12 130.45 41.99 131.81 41.34 133.18 38.17 131.67 37.7 132.66 41.97 134.68 44.72 128.89 40.47 126.87"/><path d="M38.08,127.66l-.21.36,1,.58.21-.36c.62-1.07.33-2.14-.82-2.8-1.21-.7-2.28-.35-2.87.66l-2.28,3.92,1.04.61,2.28-3.92c.32-.55.81-.66,1.31-.36.5.29.65.76.33,1.31Z"/><path d="M34.43,123.22l-1.16,1.64-1.39.22.05-3.62-1.18-.84h0s-.92-.79-.92-.79l-1.3.74-2.12-1.84.54-1.4-.97-.84-2.32,6.47,1.08.93,6.02-3.24-.04,4.58-3.66.6,1.23.87,4.19-.73-1.75,2.47.99.7,3.71-5.23-.99-.7ZM26.94,121.47c-.55.3-1.34.75-2.03,1.15.3-.74.62-1.59.84-2.18l.26-.69,1.57,1.35-.64.36Z"/><path d="M17.9,113.74l-.55.46c-.17.15-.36.3-.55.48.02-.04.05-.09.09-.15l.69-1.17-.27-.32-1.27.48c-.06.03-.11.05-.16.06.21-.16.39-.32.56-.46l.55-.46-.33-.39-1.76,1.48.45.54,1.07-.41c.15-.06.3-.13.43-.19l-.24.38-.59,1,.45.54,1.76-1.48-.33-.39Z"/><polygon points="18.87 114.88 17.48 116.05 17.03 115.52 16.66 115.83 17.9 117.31 18.27 116.99 17.82 116.46 19.21 115.28 18.87 114.88"/><path d="M11.27,105.18c.48-.29.91-.21,1.59.22l.61.37c1.32.9,2.29.51,3.03.11l.42-.23-2.44-3.97-.87.54,1.73,2.81c-.49.25-.87.13-1.46-.21l-.58-.34c-1.06-.67-1.88-.83-2.75-.29-.93.57-1.17,1.71-.43,2.9.82,1.33,1.94,1.53,3.08.82l-.61-1c-.7.43-1.21.26-1.58-.33-.35-.57-.23-1.09.26-1.4Z"/><path d="M13.16,98.81c-.77-1.54-2.25-1.75-4.15-.8-1.9.95-2.6,2.28-1.83,3.8.76,1.52,2.25,1.74,4.14.79,1.9-.95,2.6-2.28,1.84-3.8ZM8.09,101.35c-.38-.75.03-1.48,1.49-2.21,1.46-.73,2.28-.63,2.66.12.37.74-.04,1.47-1.49,2.2s-2.29.62-2.66-.11Z"/><path d="M7.15,96.52c-.76.3-1.24.05-1.5-.6-.25-.63-.04-1.12.5-1.33.52-.21.94-.05,1.53.49l.53.47c1.15,1.11,2.17.9,2.97.63l.45-.15-1.72-4.33-.95.38,1.22,3.07c-.53.16-.88-.02-1.4-.46l-.51-.44c-.93-.84-1.71-1.14-2.66-.76-1.01.4-1.44,1.48-.93,2.78.58,1.45,1.65,1.84,2.89,1.34l-.43-1.09Z"/><path d="M2.56,77.55l-.72.08c-.22.02-.46.05-.72.09.04-.02.09-.05.16-.07l1.23-.59-.05-.42-1.33-.3c-.06-.01-.12-.02-.17-.04.26-.02.5-.05.73-.07l.72-.08-.06-.51-2.29.26.08.7,1.12.25c.16.04.32.06.46.08l-.41.18-1.05.51.08.7,2.29-.26-.06-.51Z"/><polygon points="2.78 79.56 2.72 79.03 .92 79.23 .84 78.54 .36 78.6 .57 80.51 1.06 80.46 .98 79.76 2.78 79.56"/><path d="M6.54,92.09c1.18-.31,2.09-.81,2.46-1.69.18-.45.21-1.01.06-1.59-.35-1.36-1.46-2.08-2.76-1.74-1.1.29-1.88,1.26-1.52,2.65.17.66.61,1.15,1.18,1.35-1.52.34-2.27.05-2.5-.83-.15-.58,0-1.04.54-1.3l-.29-1.11c-1.05.46-1.47,1.46-1.16,2.65.43,1.63,1.88,2.16,3.98,1.61ZM5.74,89.67c-.18-.7.2-1.29.88-1.47.69-.18,1.31.15,1.49.85.18.7-.18,1.31-.88,1.49-.7.18-1.31-.17-1.49-.87Z"/></g></svg>